<?xml version="1.0" encoding="UTF-8" standalone="no"?>
<svg
   viewBox="0 0 22 22"
   version="1.1"
   id="svg6"
   sodipodi:docname="cd.svg"
   inkscape:version="1.2.2 (b0a84865, 2022-12-01)"
   xmlns:inkscape="http://www.inkscape.org/namespaces/inkscape"
   xmlns:sodipodi="http://sodipodi.sourceforge.net/DTD/sodipodi-0.dtd"
   xmlns="http://www.w3.org/2000/svg"
   xmlns:svg="http://www.w3.org/2000/svg">
  <sodipodi:namedview
     id="namedview8"
     pagecolor="#ffffff"
     bordercolor="#000000"
     borderopacity="0.25"
     inkscape:showpageshadow="2"
     inkscape:pageopacity="0.0"
     inkscape:pagecheckerboard="0"
     inkscape:deskcolor="#d1d1d1"
     showgrid="false"
     inkscape:zoom="10.727273"
     inkscape:cx="11"
     inkscape:cy="11"
     inkscape:window-width="1309"
     inkscape:window-height="456"
     inkscape:window-x="0"
     inkscape:window-y="38"
     inkscape:window-maximized="0"
     inkscape:current-layer="svg6" />
  <defs
     id="defs3051">
    <style
       type="text/css"
       id="current-color-scheme">
      .ColorScheme-Text {
        color:#4d4d4d;
      }
      </style>
  </defs>
  <path
     style="fill:#000000;fill-opacity:1;stroke:none;stroke-width:1.375"
     d="M 11,0 C 4.906,0 0,4.906 0,11 0,17.094 4.906,22 11,22 17.094,22 22,17.094 22,11 22,4.906 17.094,0 11,0 Z m 0,1.375 c 5.33225,0 9.625,4.29275 9.625,9.625 0,5.33225 -4.29275,9.625 -9.625,9.625 C 5.66775,20.625 1.375,16.33225 1.375,11 1.375,5.66775 5.66775,1.375 11,1.375 Z M 11,2.75 C 6.4295055,2.75 2.75,6.4295 2.75,11 H 6.875 C 6.875,8.71475 8.7147525,6.875 11,6.875 Z m 0,5.5 c -1.5234982,0 -2.75,1.2265 -2.75,2.75 0,1.5235 1.2265018,2.75 2.75,2.75 1.523499,0 2.75,-1.2265 2.75,-2.75 0,-1.5235 -1.226501,-2.75 -2.75,-2.75 z m 0,1.375 c 0.761749,0 1.375,0.61325 1.375,1.375 0,0.76175 -0.613251,1.375 -1.375,1.375 -0.761749,0 -1.375,-0.61325 -1.375,-1.375 0,-0.76175 0.613251,-1.375 1.375,-1.375 z M 15.125,11 c 0,2.28525 -1.839753,4.125 -4.125,4.125 v 4.125 c 4.570495,0 8.25,-3.6795 8.25,-8.25 z"
     class="ColorScheme-Text"
     id="path4" />
</svg>
